<mxfile host="app.diagrams.net" modified="2023-03-25T21:31:50.816Z" agent="Mozilla/5.0 (Windows NT 10.0; Win64; x64) AppleWebKit/537.36 (KHTML, like Gecko) Chrome/111.0.0.0 Safari/537.36" etag="NSL8NPAWKWj8ZFkHTh8S" version="21.1.1" type="github">
  <diagram name="Page-1" id="8qxk8qAVhGfue0YuYreu">
    <mxGraphModel dx="2284" dy="822" grid="1" gridSize="10" guides="1" tooltips="1" connect="1" arrows="1" fold="1" page="1" pageScale="1" pageWidth="850" pageHeight="1100" math="0" shadow="0">
      <root>
        <mxCell id="0" />
        <mxCell id="1" parent="0" />
        <mxCell id="AY-unpJ0bb41vc4mpigm-1" value="&lt;font style=&quot;font-size: 16px;&quot;&gt;&lt;b&gt;CLINIC&lt;/b&gt;&lt;/font&gt;" style="rounded=0;whiteSpace=wrap;html=1;" vertex="1" parent="1">
          <mxGeometry y="480" width="120" height="60" as="geometry" />
        </mxCell>
        <mxCell id="AY-unpJ0bb41vc4mpigm-2" value="&lt;font style=&quot;font-size: 16px;&quot;&gt;&lt;b&gt;DOCTOR&lt;/b&gt;&lt;/font&gt;" style="rounded=0;whiteSpace=wrap;html=1;" vertex="1" parent="1">
          <mxGeometry x="270" y="480" width="120" height="60" as="geometry" />
        </mxCell>
        <mxCell id="AY-unpJ0bb41vc4mpigm-3" value="&lt;b&gt;&lt;font style=&quot;font-size: 16px;&quot;&gt;PATIENT&lt;/font&gt;&lt;/b&gt;" style="rounded=0;whiteSpace=wrap;html=1;" vertex="1" parent="1">
          <mxGeometry width="120" height="60" as="geometry" />
        </mxCell>
        <mxCell id="AY-unpJ0bb41vc4mpigm-4" value="&lt;font style=&quot;font-size: 16px;&quot;&gt;&lt;b&gt;DIAGNOSIS&lt;/b&gt;&lt;/font&gt;" style="rounded=0;whiteSpace=wrap;html=1;" vertex="1" parent="1">
          <mxGeometry x="270" y="220" width="120" height="60" as="geometry" />
        </mxCell>
        <mxCell id="AY-unpJ0bb41vc4mpigm-9" value="Text" style="text;html=1;align=center;verticalAlign=middle;resizable=0;points=[];autosize=1;strokeColor=none;fillColor=none;" vertex="1" parent="1">
          <mxGeometry x="775" y="1075" width="50" height="30" as="geometry" />
        </mxCell>
        <mxCell id="AY-unpJ0bb41vc4mpigm-11" value="Text" style="text;html=1;align=center;verticalAlign=middle;resizable=0;points=[];autosize=1;strokeColor=none;fillColor=none;" vertex="1" parent="1">
          <mxGeometry x="-25" y="135" width="50" height="30" as="geometry" />
        </mxCell>
        <mxCell id="AY-unpJ0bb41vc4mpigm-15" value="" style="endArrow=none;html=1;rounded=0;entryX=0.5;entryY=1;entryDx=0;entryDy=0;exitX=0.5;exitY=0;exitDx=0;exitDy=0;" edge="1" parent="1" source="AY-unpJ0bb41vc4mpigm-8" target="AY-unpJ0bb41vc4mpigm-3">
          <mxGeometry width="50" height="50" relative="1" as="geometry">
            <mxPoint x="400" y="340" as="sourcePoint" />
            <mxPoint x="450" y="290" as="targetPoint" />
          </mxGeometry>
        </mxCell>
        <mxCell id="AY-unpJ0bb41vc4mpigm-16" value="" style="endArrow=none;html=1;rounded=0;entryX=0.575;entryY=1;entryDx=0;entryDy=0;entryPerimeter=0;exitX=0.6;exitY=0.1;exitDx=0;exitDy=0;exitPerimeter=0;" edge="1" parent="1" source="AY-unpJ0bb41vc4mpigm-8" target="AY-unpJ0bb41vc4mpigm-3">
          <mxGeometry width="50" height="50" relative="1" as="geometry">
            <mxPoint x="69" y="110" as="sourcePoint" />
            <mxPoint x="70" y="70" as="targetPoint" />
            <Array as="points">
              <mxPoint x="69" y="80" />
            </Array>
          </mxGeometry>
        </mxCell>
        <mxCell id="AY-unpJ0bb41vc4mpigm-17" value=".." style="text;html=1;align=center;verticalAlign=middle;resizable=0;points=[];autosize=1;strokeColor=none;fillColor=none;" vertex="1" parent="1">
          <mxGeometry x="770" y="30" width="30" height="30" as="geometry" />
        </mxCell>
        <mxCell id="AY-unpJ0bb41vc4mpigm-18" value="&lt;font style=&quot;font-size: 15px;&quot;&gt;&lt;b&gt;N&lt;/b&gt;&lt;/font&gt;" style="text;html=1;align=center;verticalAlign=middle;resizable=0;points=[];autosize=1;strokeColor=none;fillColor=none;" vertex="1" parent="1">
          <mxGeometry x="40" y="80" width="30" height="30" as="geometry" />
        </mxCell>
        <mxCell id="AY-unpJ0bb41vc4mpigm-19" value="" style="endArrow=none;html=1;rounded=0;entryX=0.5;entryY=1;entryDx=0;entryDy=0;exitX=0.5;exitY=0;exitDx=0;exitDy=0;" edge="1" parent="1" source="AY-unpJ0bb41vc4mpigm-21" target="AY-unpJ0bb41vc4mpigm-5">
          <mxGeometry width="50" height="50" relative="1" as="geometry">
            <mxPoint x="70" y="300" as="sourcePoint" />
            <mxPoint x="69" y="60" as="targetPoint" />
          </mxGeometry>
        </mxCell>
        <mxCell id="AY-unpJ0bb41vc4mpigm-5" value="&lt;font size=&quot;1&quot; style=&quot;&quot;&gt;&lt;b style=&quot;font-size: 15px;&quot;&gt;OUTPATIENT DEPARTMENT&lt;/b&gt;&lt;/font&gt;" style="rounded=0;whiteSpace=wrap;html=1;" vertex="1" parent="1">
          <mxGeometry y="220" width="120" height="60" as="geometry" />
        </mxCell>
        <mxCell id="AY-unpJ0bb41vc4mpigm-20" value="" style="endArrow=none;html=1;rounded=0;entryX=0.5;entryY=1;entryDx=0;entryDy=0;exitX=0.5;exitY=0;exitDx=0;exitDy=0;" edge="1" parent="1" source="AY-unpJ0bb41vc4mpigm-5" target="AY-unpJ0bb41vc4mpigm-8">
          <mxGeometry width="50" height="50" relative="1" as="geometry">
            <mxPoint x="60" y="220" as="sourcePoint" />
            <mxPoint x="60" y="60" as="targetPoint" />
          </mxGeometry>
        </mxCell>
        <mxCell id="AY-unpJ0bb41vc4mpigm-8" value="&lt;font style=&quot;font-size: 15px;&quot;&gt;COMES&lt;/font&gt;" style="rhombus;whiteSpace=wrap;html=1;" vertex="1" parent="1">
          <mxGeometry x="20" y="110" width="80" height="80" as="geometry" />
        </mxCell>
        <mxCell id="AY-unpJ0bb41vc4mpigm-21" value="&lt;font style=&quot;font-size: 11px;&quot;&gt;TRANSFERRED&lt;/font&gt;" style="rhombus;whiteSpace=wrap;html=1;" vertex="1" parent="1">
          <mxGeometry x="20" y="340" width="80" height="80" as="geometry" />
        </mxCell>
        <mxCell id="AY-unpJ0bb41vc4mpigm-22" value="" style="endArrow=none;html=1;rounded=0;entryX=0.5;entryY=1;entryDx=0;entryDy=0;exitX=0.6;exitY=0.1;exitDx=0;exitDy=0;exitPerimeter=0;" edge="1" parent="1" source="AY-unpJ0bb41vc4mpigm-21">
          <mxGeometry width="50" height="50" relative="1" as="geometry">
            <mxPoint x="70" y="340" as="sourcePoint" />
            <mxPoint x="70" y="280" as="targetPoint" />
          </mxGeometry>
        </mxCell>
        <mxCell id="AY-unpJ0bb41vc4mpigm-23" value="&lt;span style=&quot;font-size: 15px;&quot;&gt;&lt;b&gt;M&lt;/b&gt;&lt;/span&gt;" style="text;html=1;align=center;verticalAlign=middle;resizable=0;points=[];autosize=1;strokeColor=none;fillColor=none;" vertex="1" parent="1">
          <mxGeometry x="20" y="190" width="40" height="30" as="geometry" />
        </mxCell>
        <mxCell id="AY-unpJ0bb41vc4mpigm-25" value="" style="endArrow=none;html=1;rounded=0;entryX=0.5;entryY=1;entryDx=0;entryDy=0;" edge="1" parent="1" source="AY-unpJ0bb41vc4mpigm-1" target="AY-unpJ0bb41vc4mpigm-21">
          <mxGeometry width="50" height="50" relative="1" as="geometry">
            <mxPoint x="15" y="470" as="sourcePoint" />
            <mxPoint x="65" y="420" as="targetPoint" />
          </mxGeometry>
        </mxCell>
      </root>
    </mxGraphModel>
  </diagram>
</mxfile>
